<svg xmlns="http://www.w3.org/2000/svg" viewBox="0 0 1200 720" width="1200" height="720" style="font-family: 'DM Mono', monospace;">
  <defs>
    <style>
      .bg { fill: #f7f6f3; }
      .fg { fill: #0a0a0a; }
      .gray { fill: #888; }
      .line { stroke: #d6d4cf; }
      .card { fill: #ffffff; }
      .pill { fill: #f0efec; }
      .serif { font-family: Georgia, serif; }
      .mono { font-family: 'Courier New', monospace; }
    </style>
  </defs>

  <!-- Background -->
  <rect width="1200" height="720" class="bg"/>

  <!-- Controls (top right) -->
  <rect x="1100" y="20" width="26" height="26" rx="3" fill="none" stroke="#d6d4cf" stroke-width="1"/>
  <text x="1113" y="37" text-anchor="middle" font-size="13" fill="#0a0a0a">◐</text>
  <rect x="1132" y="20" width="26" height="26" rx="3" fill="none" stroke="#d6d4cf" stroke-width="1"/>
  <text x="1145" y="37" text-anchor="middle" font-size="13" fill="#0a0a0a">◑</text>
  <text x="1100" y="55" font-size="8" fill="#888" letter-spacing="2" class="mono">MONO</text>
  <rect x="1170" y="20" width="26" height="26" rx="3" fill="none" stroke="#0a0a0a" stroke-width="1"/>
  <text x="1183" y="37" text-anchor="middle" font-size="13" fill="#0a0a0a">⬇</text>

  <!-- Header -->
  <!-- Name -->
  <text x="64" y="128" font-size="72" font-weight="300" fill="#0a0a0a" class="serif" letter-spacing="-2">Alexandre</text>
  <text x="64" y="198" font-size="72" font-weight="500" fill="#0a0a0a" class="serif" letter-spacing="-2">Moreau</text>
  <text x="64" y="222" font-size="10" fill="#888" letter-spacing="3" class="mono">SAP CONSULTANT · IT INFRASTRUCTURE</text>

  <!-- Contact right -->
  <text x="1136" y="148" text-anchor="end" font-size="10" fill="#888" class="mono">✉ alexandre.moreau@email.com</text>
  <text x="1136" y="165" text-anchor="end" font-size="10" fill="#888" class="mono">⌖ Paris, France</text>
  <text x="1136" y="182" text-anchor="end" font-size="10" fill="#888" class="mono">◈ linkedin.com/in/alexandre</text>
  <text x="1136" y="199" text-anchor="end" font-size="10" fill="#888" class="mono">⌗ github.com/alexandre</text>

  <!-- Availability badge -->
  <rect x="980" y="210" width="156" height="22" rx="3" fill="none" stroke="#2d8a4e" stroke-width="1"/>
  <circle cx="993" cy="221" r="4" fill="#2d8a4e"/>
  <text x="1002" y="225" font-size="9" fill="#2d8a4e" letter-spacing="1" class="mono">OPEN TO OPPORTUNITIES</text>

  <!-- Divider -->
  <line x1="64" y1="248" x2="1136" y2="248" stroke="#0a0a0a" stroke-width="1"/>

  <!-- ── ASIDE ── -->
  <!-- About label -->
  <text x="64" y="290" font-size="8" fill="#888" letter-spacing="3" class="mono">ABOUT</text>
  <line x1="104" y1="287" x2="300" y2="287" stroke="#d6d4cf" stroke-width="1"/>
  <text x="64" y="308" font-size="13" fill="#888" class="serif" font-style="italic">Junior SAP Consultant with 3 years of</text>
  <text x="64" y="325" font-size="13" fill="#888" class="serif" font-style="italic">hands-on experience in SAP Basis,</text>
  <text x="64" y="342" font-size="13" fill="#888" class="serif" font-style="italic">cloud infrastructure, and IT security.</text>

  <!-- Skills label -->
  <text x="64" y="378" font-size="8" fill="#888" letter-spacing="3" class="mono">SKILLS</text>
  <line x1="104" y1="375" x2="300" y2="375" stroke="#d6d4cf" stroke-width="1"/>
  <text x="64" y="396" font-size="8" fill="#888" letter-spacing="2" class="mono">SAP</text>
  <!-- Pills -->
  <rect x="64" y="402" width="52" height="20" rx="3" fill="#f0efec" stroke="#d6d4cf" stroke-width="1"/>
  <text x="90" y="415" text-anchor="middle" font-size="9" fill="#0a0a0a" class="mono">SAP Basis</text>
  <rect x="122" y="402" width="52" height="20" rx="3" fill="#f0efec" stroke="#d6d4cf" stroke-width="1"/>
  <text x="148" y="415" text-anchor="middle" font-size="9" fill="#0a0a0a" class="mono">SAP HANA</text>
  <rect x="180" y="402" width="42" height="20" rx="3" fill="#f0efec" stroke="#d6d4cf" stroke-width="1"/>
  <text x="201" y="415" text-anchor="middle" font-size="9" fill="#0a0a0a" class="mono">SAP BTP</text>
  <rect x="228" y="402" width="72" height="20" rx="3" fill="#f0efec" stroke="#d6d4cf" stroke-width="1"/>
  <text x="264" y="415" text-anchor="middle" font-size="9" fill="#0a0a0a" class="mono">Solution Mgr</text>
  <text x="64" y="440" font-size="8" fill="#888" letter-spacing="2" class="mono">INFRASTRUCTURE</text>
  <rect x="64" y="446" width="58" height="20" rx="3" fill="#f0efec" stroke="#d6d4cf" stroke-width="1"/>
  <text x="93" y="459" text-anchor="middle" font-size="9" fill="#0a0a0a" class="mono">Linux/Unix</text>
  <rect x="128" y="446" width="42" height="20" rx="3" fill="#f0efec" stroke="#d6d4cf" stroke-width="1"/>
  <text x="149" y="459" text-anchor="middle" font-size="9" fill="#0a0a0a" class="mono">TCP/IP</text>
  <rect x="176" y="446" width="46" height="20" rx="3" fill="#f0efec" stroke="#d6d4cf" stroke-width="1"/>
  <text x="199" y="459" text-anchor="middle" font-size="9" fill="#0a0a0a" class="mono">Virt.</text>
  <text x="64" y="484" font-size="8" fill="#888" letter-spacing="2" class="mono">SECURITY</text>
  <rect x="64" y="490" width="64" height="20" rx="3" fill="#f0efec" stroke="#d6d4cf" stroke-width="1"/>
  <text x="96" y="503" text-anchor="middle" font-size="9" fill="#0a0a0a" class="mono">Stormshield</text>
  <rect x="134" y="490" width="52" height="20" rx="3" fill="#f0efec" stroke="#d6d4cf" stroke-width="1"/>
  <text x="160" y="503" text-anchor="middle" font-size="9" fill="#0a0a0a" class="mono">Firewall</text>
  <rect x="192" y="490" width="32" height="20" rx="3" fill="#f0efec" stroke="#d6d4cf" stroke-width="1"/>
  <text x="208" y="503" text-anchor="middle" font-size="9" fill="#0a0a0a" class="mono">IAM</text>

  <!-- Certifications -->
  <text x="64" y="534" font-size="8" fill="#888" letter-spacing="3" class="mono">CERTIFICATIONS</text>
  <line x1="148" y1="531" x2="300" y2="531" stroke="#d6d4cf" stroke-width="1"/>
  <rect x="64" y="540" width="236" height="34" rx="3" fill="#ffffff" stroke="#d6d4cf" stroke-width="1"/>
  <rect x="74" y="550" width="16" height="16" rx="2" fill="#0a0a0a"/>
  <text x="82" y="561" text-anchor="middle" font-size="7" fill="#f7f6f3" class="mono">SAP</text>
  <text x="97" y="553" font-size="10" fill="#0a0a0a" class="mono">SAP BTP Associate</text>
  <text x="97" y="566" font-size="9" fill="#888" class="mono">SAP · 2024</text>
  <rect x="64" y="580" width="236" height="34" rx="3" fill="#ffffff" stroke="#d6d4cf" stroke-width="1"/>
  <rect x="74" y="590" width="16" height="16" rx="2" fill="#0a0a0a"/>
  <text x="82" y="601" text-anchor="middle" font-size="7" fill="#f7f6f3" class="mono">SNS</text>
  <text x="97" y="593" font-size="10" fill="#0a0a0a" class="mono">Stormshield CSNA</text>
  <text x="97" y="606" font-size="9" fill="#888" class="mono">Stormshield · 2023</text>
  <rect x="64" y="620" width="236" height="34" rx="3" fill="#ffffff" stroke="#d6d4cf" stroke-width="1"/>
  <rect x="74" y="630" width="16" height="16" rx="2" fill="#0a0a0a"/>
  <text x="82" y="641" text-anchor="middle" font-size="7" fill="#f7f6f3" class="mono">CSC</text>
  <text x="97" y="633" font-size="10" fill="#0a0a0a" class="mono">CCNA — Intro to Networks</text>
  <text x="97" y="646" font-size="9" fill="#888" class="mono">Cisco · 2022</text>

  <!-- Languages -->
  <text x="64" y="682" font-size="8" fill="#888" letter-spacing="3" class="mono">LANGUAGES</text>
  <line x1="130" y1="679" x2="300" y2="679" stroke="#d6d4cf" stroke-width="1"/>
  <text x="64" y="700" font-size="11" fill="#0a0a0a" class="mono">French</text>
  <text x="296" y="700" text-anchor="end" font-size="9" fill="#888" class="mono">Native</text>
  <rect x="64" y="703" width="236" height="2" rx="1" fill="#d6d4cf"/>
  <rect x="64" y="703" width="236" height="2" rx="1" fill="#0a0a0a"/>

  <!-- ── MAIN CONTENT ── -->
  <!-- Experience label -->
  <text x="366" y="290" font-size="8" fill="#888" letter-spacing="3" class="mono">EXPERIENCE</text>
  <line x1="424" y1="287" x2="1136" y2="287" stroke="#d6d4cf" stroke-width="1"/>

  <!-- Timeline line -->
  <line x1="388" y1="300" x2="388" y2="560" stroke="#d6d4cf" stroke-width="1"/>

  <!-- Entry 1 -->
  <rect x="366" y="302" width="44" height="44" rx="3" fill="#ffffff" stroke="#d6d4cf" stroke-width="1"/>
  <text x="388" y="328" text-anchor="middle" font-size="10" fill="#0a0a0a" class="mono">OX</text>
  <text x="422" y="318" font-size="18" fill="#0a0a0a" class="serif" font-weight="500">SAP Basis Consultant</text>
  <text x="422" y="332" font-size="8" fill="#888" letter-spacing="2" class="mono">CDI</text>
  <rect x="1060" y="304" width="76" height="18" rx="3" fill="none" stroke="#d6d4cf" stroke-width="1"/>
  <text x="1098" y="316" text-anchor="middle" font-size="8" fill="#888" letter-spacing="1" class="mono">2025 → NOW</text>
  <text x="422" y="348" font-size="9" fill="#888" letter-spacing="1" class="mono">OXYA · PAU, FRANCE</text>
  <text x="430" y="366" font-size="10" fill="#888">— SAP Basis administration across multi-client landscapes</text>
  <text x="430" y="381" font-size="10" fill="#888">— SAP HANA monitoring and performance tuning</text>
  <text x="430" y="396" font-size="10" fill="#888">— Level 2 &amp; 3 incident management and SLA follow-up</text>
  <!-- Tags -->
  <rect x="422" y="406" width="58" height="18" rx="3" fill="none" stroke="#d6d4cf" stroke-width="1"/>
  <text x="451" y="418" text-anchor="middle" font-size="8" fill="#888" letter-spacing="1" class="mono">SAP BASIS</text>
  <rect x="486" y="406" width="58" height="18" rx="3" fill="none" stroke="#d6d4cf" stroke-width="1"/>
  <text x="515" y="418" text-anchor="middle" font-size="8" fill="#888" letter-spacing="1" class="mono">SAP HANA</text>
  <rect x="550" y="406" width="40" height="18" rx="3" fill="none" stroke="#d6d4cf" stroke-width="1"/>
  <text x="570" y="418" text-anchor="middle" font-size="8" fill="#888" letter-spacing="1" class="mono">LINUX</text>
  <rect x="596" y="406" width="34" height="18" rx="3" fill="none" stroke="#d6d4cf" stroke-width="1"/>
  <text x="613" y="418" text-anchor="middle" font-size="8" fill="#888" letter-spacing="1" class="mono">ITIL</text>

  <!-- Entry 2 -->
  <rect x="366" y="444" width="44" height="44" rx="3" fill="#ffffff" stroke="#d6d4cf" stroke-width="1"/>
  <text x="388" y="470" text-anchor="middle" font-size="10" fill="#0a0a0a" class="mono">OX</text>
  <text x="422" y="460" font-size="18" fill="#0a0a0a" class="serif" font-weight="500">SAP Basis Consultant</text>
  <text x="422" y="474" font-size="8" fill="#888" letter-spacing="2" class="mono">APPRENTICESHIP</text>
  <rect x="1030" y="446" width="106" height="18" rx="3" fill="none" stroke="#d6d4cf" stroke-width="1"/>
  <text x="1083" y="458" text-anchor="middle" font-size="8" fill="#888" letter-spacing="1" class="mono">2022 → 2025</text>
  <text x="422" y="490" font-size="9" fill="#888" letter-spacing="1" class="mono">OXYA · PAU, FRANCE</text>
  <text x="430" y="508" font-size="10" fill="#888">— Technical support on SAP BTP cloud environments</text>
  <text x="430" y="523" font-size="10" fill="#888">— Participation in SAP landscape migration projects</text>

  <!-- Education label -->
  <text x="366" y="580" font-size="8" fill="#888" letter-spacing="3" class="mono">EDUCATION</text>
  <line x1="424" y1="577" x2="1136" y2="577" stroke="#d6d4cf" stroke-width="1"/>

  <!-- Timeline line edu -->
  <line x1="388" y1="592" x2="388" y2="680" stroke="#d6d4cf" stroke-width="1"/>

  <rect x="366" y="592" width="44" height="44" rx="3" fill="#ffffff" stroke="#d6d4cf" stroke-width="1"/>
  <text x="388" y="618" text-anchor="middle" font-size="9" fill="#0a0a0a" class="mono">IMT</text>
  <text x="422" y="608" font-size="18" fill="#0a0a0a" class="serif" font-weight="500">Engineering Degree — Networks</text>
  <rect x="1018" y="594" width="118" height="18" rx="3" fill="none" stroke="#d6d4cf" stroke-width="1"/>
  <text x="1077" y="606" text-anchor="middle" font-size="8" fill="#888" letter-spacing="1" class="mono">2022 → 2025</text>
  <text x="422" y="622" font-size="9" fill="#888" letter-spacing="1" class="mono">IMT MINES ALÈS · ALÈS, FRANCE</text>
  <text x="430" y="640" font-size="10" fill="#888">— 3-year engineering degree via apprenticeship</text>
  <text x="430" y="655" font-size="10" fill="#888">— Networks, systems and cybersecurity specialisation</text>

  <!-- Footer -->
  <line x1="64" y1="698" x2="1136" y2="698" stroke="#0a0a0a" stroke-width="1"/>
  <text x="64" y="712" font-size="9" fill="#888" letter-spacing="2" class="mono">ALEXANDRE MOREAU</text>
  <text x="1136" y="712" text-anchor="end" font-size="9" fill="#888" letter-spacing="2" class="mono">MARCH 2026</text>
</svg>
